<?xml version="1.0" encoding="UTF-8"?>
<svg xmlns="http://www.w3.org/2000/svg" xmlns:xlink="http://www.w3.org/1999/xlink" width="26pt" height="26pt" viewBox="0 0 26 26" version="1.1">
<g id="surface1">
<path style=" stroke:none;fill-rule:nonzero;fill:rgb(29.019608%,47.843137%,100%);fill-opacity:1;" d="M 26 13 C 26 20.179688 20.179688 26 13 26 C 5.820312 26 0 20.179688 0 13 C 0 5.820312 5.820312 0 13 0 C 20.179688 0 26 5.820312 26 13 Z M 26 13 "/>
<path style=" stroke:none;fill-rule:nonzero;fill:rgb(0%,32.54902%,74.901961%);fill-opacity:1;" d="M 13.570312 25.988281 C 20.484375 25.6875 26 19.988281 26 13 C 26 12.949219 26 12.898438 25.996094 12.847656 L 16.972656 3.824219 L 7.324219 13.910156 L 12.6875 19.269531 L 10.214844 22.632812 Z M 13.570312 25.988281 "/>
<path style=" stroke:none;fill-rule:nonzero;fill:rgb(100%,100%,100%);fill-opacity:1;" d="M 16.972656 3.824219 L 16.972656 6.769531 C 16.972656 6.769531 13.59375 6.277344 13.59375 8.457031 L 13.59375 10.636719 L 16.648438 10.636719 L 16.265625 13.964844 L 13.59375 13.964844 L 13.59375 22.632812 L 10.214844 22.632812 L 10.214844 13.964844 L 7.324219 13.910156 L 7.324219 10.636719 L 10.160156 10.636719 L 10.160156 8.132812 C 10.160156 8.132812 9.972656 4.402344 13.648438 3.714844 C 15.175781 3.429688 16.972656 3.824219 16.972656 3.824219 Z M 16.972656 3.824219 "/>
<path style=" stroke:none;fill-rule:nonzero;fill:rgb(86.27451%,88.235294%,92.156863%);fill-opacity:1;" d="M 16.972656 6.769531 L 16.972656 3.824219 C 16.972656 3.824219 15.175781 3.429688 13.648438 3.714844 C 13.410156 3.761719 13.1875 3.816406 12.980469 3.886719 L 12.980469 22.632812 L 13.59375 22.632812 L 13.59375 13.964844 L 16.265625 13.964844 L 16.648438 10.636719 L 13.59375 10.636719 C 13.59375 10.636719 13.59375 10.636719 13.59375 8.457031 C 13.59375 6.277344 16.972656 6.769531 16.972656 6.769531 Z M 16.972656 6.769531 "/>
</g>
</svg>
