<?xml version="1.0" encoding="UTF-8"?>
<svg xmlns="http://www.w3.org/2000/svg" xmlns:xlink="http://www.w3.org/1999/xlink" width="26pt" height="26pt" viewBox="0 0 26 26" version="1.1">
<g id="surface1">
<path style=" stroke:none;fill-rule:nonzero;fill:rgb(0%,0%,0%);fill-opacity:1;" d="M 13 0.542969 C 5.816406 0.542969 0 6.261719 0 13.316406 C 0 18.960938 3.722656 23.75 8.890625 25.4375 C 9.539062 25.558594 9.777344 25.160156 9.777344 24.824219 C 9.777344 24.519531 9.765625 23.714844 9.761719 22.648438 C 6.144531 23.421875 5.382812 20.9375 5.382812 20.9375 C 4.789062 19.460938 3.9375 19.066406 3.9375 19.066406 C 2.757812 18.277344 4.027344 18.292969 4.027344 18.292969 C 5.332031 18.382812 6.019531 19.609375 6.019531 19.609375 C 7.175781 21.5625 9.0625 20.996094 9.804688 20.671875 C 9.921875 19.84375 10.257812 19.28125 10.628906 18.960938 C 7.742188 18.644531 4.707031 17.542969 4.707031 12.648438 C 4.707031 11.253906 5.210938 10.117188 6.042969 9.222656 C 5.898438 8.898438 5.457031 7.601562 6.15625 5.839844 C 6.15625 5.839844 7.246094 5.5 9.734375 7.152344 C 10.773438 6.867188 11.878906 6.726562 12.984375 6.71875 C 14.085938 6.726562 15.191406 6.867188 16.234375 7.152344 C 18.703125 5.5 19.792969 5.839844 19.792969 5.839844 C 20.488281 7.601562 20.050781 8.898438 19.921875 9.222656 C 20.75 10.117188 21.253906 11.253906 21.253906 12.648438 C 21.253906 17.558594 18.214844 18.636719 15.324219 18.953125 C 15.777344 19.335938 16.199219 20.117188 16.199219 21.316406 C 16.199219 23.023438 16.183594 24.398438 16.183594 24.8125 C 16.183594 25.148438 16.410156 25.546875 17.078125 25.421875 C 22.277344 23.742188 26 18.953125 26 13.316406 C 26 6.261719 20.179688 0.542969 13 0.542969 Z M 13 0.542969 "/>
</g>
</svg>
