<?xml version="1.0" encoding="UTF-8"?>
<svg xmlns="http://www.w3.org/2000/svg" xmlns:xlink="http://www.w3.org/1999/xlink" width="26pt" height="26pt" viewBox="0 0 26 26" version="1.1">
<g id="surface1">
<path style=" stroke:none;fill-rule:nonzero;fill:rgb(70.196078%,70.196078%,70.196078%);fill-opacity:1;" d="M 13 1.082031 C 6.117188 1.082031 0.542969 6.554688 0.542969 13.300781 C 0.542969 18.703125 4.109375 23.28125 9.058594 24.894531 C 9.683594 25.011719 9.910156 24.632812 9.910156 24.308594 C 9.910156 24.015625 9.902344 23.25 9.894531 22.230469 C 6.429688 22.96875 5.699219 20.59375 5.699219 20.59375 C 5.132812 19.179688 4.3125 18.804688 4.3125 18.804688 C 3.183594 18.046875 4.402344 18.0625 4.402344 18.0625 C 5.652344 18.148438 6.308594 19.320312 6.308594 19.320312 C 7.417969 21.191406 9.222656 20.652344 9.9375 20.335938 C 10.050781 19.546875 10.371094 19.007812 10.726562 18.703125 C 7.957031 18.398438 5.050781 17.347656 5.050781 12.664062 C 5.050781 11.332031 5.535156 10.242188 6.332031 9.386719 C 6.195312 9.078125 5.773438 7.835938 6.441406 6.152344 C 6.441406 6.152344 7.484375 5.824219 9.867188 7.402344 C 11.789062 6.878906 14.019531 6.835938 16.097656 7.402344 C 18.464844 5.824219 19.507812 6.152344 19.507812 6.152344 C 20.175781 7.835938 19.757812 9.074219 19.632812 9.386719 C 20.425781 10.242188 20.910156 11.328125 20.910156 12.664062 C 20.910156 17.359375 17.996094 18.390625 15.226562 18.691406 C 16.347656 19.632812 16.050781 21.394531 16.050781 24.296875 C 16.050781 24.617188 16.269531 25 16.90625 24.878906 C 21.890625 23.277344 25.457031 18.695312 25.457031 13.300781 C 25.457031 6.554688 19.878906 1.082031 13 1.082031 Z M 13 1.082031 "/>
<path style=" stroke:none;fill-rule:nonzero;fill:rgb(0%,0%,0%);fill-opacity:1;" d="M 0.199219 11.332031 C -0.644531 16.648438 1.71875 23.058594 9 25.421875 C 9.128906 25.449219 9.25 25.457031 9.363281 25.457031 C 10.210938 25.457031 10.792969 24.828125 10.792969 24.050781 C 10.6875 23.484375 11.207031 21.1875 9.796875 21.496094 C 7.066406 22.078125 6.738281 20.554688 6.324219 19.753906 C 7.5 21.265625 9.269531 21.226562 10.601562 20.644531 C 11.339844 20.316406 10.953125 19.492188 11.304688 19.1875 C 11.84375 18.726562 11.570312 17.839844 10.863281 17.765625 C 8.359375 17.488281 6.035156 16.679688 6.035156 12.671875 C 6.035156 10.320312 7.667969 10.113281 7.21875 9.128906 C 7.199219 9.09375 6.855469 8.3125 7.167969 7.125 C 8.707031 7.410156 9.414062 8.511719 10.152344 8.316406 C 11.976562 7.816406 13.988281 7.816406 15.816406 8.316406 C 16.578125 8.519531 17.125 7.445312 18.78125 7.121094 C 19.261719 8.910156 18.269531 9.347656 18.894531 10.019531 C 19.578125 10.757812 19.925781 11.648438 19.925781 12.671875 C 19.925781 18.699219 14.816406 16.957031 14.402344 18.324219 C 14.304688 18.636719 14.40625 18.972656 14.65625 19.183594 C 15.316406 19.738281 15.230469 21.167969 15.160156 22.3125 C 15.085938 23.503906 15.023438 24.527344 15.679688 25.105469 C 15.914062 25.3125 16.324219 25.53125 17.070312 25.382812 C 24.257812 23.074219 26.636719 16.691406 25.808594 11.386719 C 23.535156 -3.09375 2.488281 -3.078125 0.199219 11.332031 Z M 9.160156 23.226562 L 9.164062 23.773438 C 8.597656 23.578125 8.0625 23.351562 7.566406 23.097656 C 8.023438 23.21875 8.554688 23.269531 9.160156 23.226562 Z M 9.558594 19.21875 C 9.554688 19.246094 9.546875 19.277344 9.542969 19.304688 C 8.617188 19.578125 7.910156 19.304688 7.421875 18.492188 C 7.421875 18.488281 7.421875 18.488281 7.421875 18.488281 C 8.160156 18.882812 8.917969 19.09375 9.558594 19.21875 Z M 13 2.167969 C 25.820312 2.167969 28.710938 19.789062 16.757812 23.769531 C 16.71875 23.449219 16.753906 22.839844 16.78125 22.414062 C 16.84375 21.382812 16.917969 20.183594 16.550781 19.179688 C 22.0625 18.03125 22.523438 11.980469 20.398438 9.28125 C 20.664062 8.25 20.558594 5.828125 19.609375 5.53125 C 19.386719 5.460938 18.195312 5.203125 15.886719 6.65625 C 14 6.203125 11.964844 6.203125 10.078125 6.65625 C 8.925781 5.933594 6.328125 4.757812 5.832031 6.003906 C 5.253906 7.457031 5.390625 8.632812 5.5625 9.289062 C 3.679688 11.675781 4.242188 15.671875 6.140625 17.550781 C 5.066406 17.035156 3.582031 16.859375 3.261719 17.890625 C 2.914062 19.011719 4.25 18.875 5.082031 20.925781 C 5.160156 21.183594 5.308594 21.484375 5.53125 21.78125 C -1.847656 15.75 1.710938 2.167969 13 2.167969 Z M 13 2.167969 "/>
</g>
</svg>
