<?xml version="1.0" encoding="UTF-8"?>
<svg xmlns="http://www.w3.org/2000/svg" xmlns:xlink="http://www.w3.org/1999/xlink" width="26pt" height="26pt" viewBox="0 0 26 26" version="1.1">
<g id="surface1">
<path style=" stroke:none;fill-rule:nonzero;fill:rgb(29.019608%,52.54902%,77.254902%);fill-opacity:1;" d="M 26 13 C 26 20.179688 20.179688 26 13 26 C 5.820312 26 0 20.179688 0 13 C 0 5.820312 5.820312 0 13 0 C 20.179688 0 26 5.820312 26 13 Z M 26 13 "/>
<path style=" stroke:none;fill-rule:nonzero;fill:rgb(23.921569%,50.196078%,69.803922%);fill-opacity:1;" d="M 22.191406 3.804688 C 27.269531 8.882812 27.269531 17.113281 22.191406 22.191406 C 17.113281 27.269531 8.882812 27.269531 3.804688 22.191406 Z M 22.191406 3.804688 "/>
<path style=" stroke:none;fill-rule:nonzero;fill:rgb(29.019608%,52.54902%,77.254902%);fill-opacity:1;" d="M 25.382812 16.96875 C 25.429688 16.816406 25.472656 16.667969 25.515625 16.515625 C 25.472656 16.667969 25.425781 16.816406 25.382812 16.96875 Z M 25.382812 16.96875 "/>
<path style=" stroke:none;fill-rule:nonzero;fill:rgb(21.568627%,48.627451%,64.705882%);fill-opacity:1;" d="M 25.515625 16.515625 L 18.472656 9.472656 L 16.871094 11.074219 L 15.757812 9.960938 L 14.828125 10.890625 L 9.382812 5.445312 L 9.046875 5.316406 L 6.957031 7.40625 L 9.476562 9.925781 L 7.007812 12.394531 L 9.421875 14.804688 L 6.785156 17.441406 L 15.167969 25.816406 C 19.996094 25.007812 23.917969 21.539062 25.382812 16.96875 C 25.425781 16.816406 25.472656 16.667969 25.515625 16.515625 Z M 25.515625 16.515625 "/>
<path style=" stroke:none;fill-rule:nonzero;fill:rgb(100%,100%,100%);fill-opacity:1;" d="M 19.671875 12.644531 L 19.671875 17.464844 L 16.875 17.464844 L 16.875 12.964844 C 16.875 11.835938 16.472656 11.066406 15.460938 11.066406 C 14.6875 11.066406 14.226562 11.585938 14.027344 12.085938 C 13.953125 12.265625 13.933594 12.515625 13.933594 12.769531 L 13.933594 17.464844 L 11.136719 17.464844 C 11.136719 17.464844 11.175781 9.84375 11.136719 9.054688 L 13.933594 9.054688 L 13.933594 10.246094 C 13.929688 10.257812 13.921875 10.265625 13.914062 10.273438 L 13.933594 10.273438 L 13.933594 10.246094 C 14.304688 9.675781 14.96875 8.859375 16.453125 8.859375 C 18.292969 8.859375 19.671875 10.058594 19.671875 12.644531 Z M 8.210938 5.003906 C 7.257812 5.003906 6.628906 5.628906 6.628906 6.457031 C 6.628906 7.261719 7.238281 7.910156 8.175781 7.910156 L 8.195312 7.910156 C 9.167969 7.910156 9.777344 7.261719 9.777344 6.457031 C 9.757812 5.628906 9.167969 5.003906 8.210938 5.003906 Z M 6.796875 17.464844 L 9.589844 17.464844 L 9.589844 9.054688 L 6.796875 9.054688 Z M 6.796875 17.464844 "/>
</g>
</svg>
